# xmcd
#
# Track frame offsets:
#	150
#	16594
#	30597
#	52918
#	71355
#	90680
#	111200
#	125562
#	142771
#	162372
#	179497
#	197203
#
# Disc length: 2993 seconds
#
# Revision: 0
# Processed by: cddbd v1.5.1PL0 Copyright (c) Steve Scherf et al.
# Submitted via: dBpowerAMP V4.0
#
DISCID=980baf0c
DTITLE=Arnold veeman - Contrast [CD1)
DYEAR=1900
DGENRE=Country
TTITLE0=Way down
TTITLE1=Soundcasts
TTITLE2=I
TTITLE3=Suicide
TTITLE4=Mon cher petit
TTITLE5=Jimmy
TTITLE6=Sailor´s maze
TTITLE7=memories
TTITLE8=September dreams
TTITLE9=Time
TTITLE10=Mr Jones
TTITLE11=They
EXTD=
EXTT0=
EXTT1=
EXTT2=
EXTT3=
EXTT4=
EXTT5=
EXTT6=
EXTT7=
EXTT8=
EXTT9=
EXTT10=
EXTT11=
PLAYORDER=
